<svg xmlns="http://www.w3.org/2000/svg" xmlns:xlink="http://www.w3.org/1999/xlink" width="500" zoomAndPan="magnify" viewBox="0 0 375 374.999991" height="500" preserveAspectRatio="xMidYMid meet" version="1.0"><defs><g/></defs><g fill="#ffffff" fill-opacity="1"><g transform="translate(2.315714, 255.77858)"><g><path d="M 102.34375 0 L 102.34375 -79.421875 L 37.484375 -79.421875 L 37.484375 -99.8125 L 102.34375 -99.8125 L 102.34375 -129.515625 L 5.046875 -129.515625 L 5.046875 -50.875 L 69.90625 -50.875 L 69.90625 -29.515625 L 5.046875 -29.515625 L 5.046875 0 Z M 102.34375 0 "/></g></g></g><g fill="#ffffff" fill-opacity="1"><g transform="translate(102.493123, 255.77858)"><g><path d="M 102.34375 0 L 102.34375 -29.515625 L 37.484375 -29.515625 L 37.484375 -99.8125 L 102.34375 -99.8125 L 102.34375 -129.515625 L 5.046875 -129.515625 L 5.046875 0 Z M 102.34375 0 "/></g></g></g><g fill="#ffffff" fill-opacity="1"><g transform="translate(192.542598, 255.77858)"><g><path d="M 132.4375 0 L 132.4375 -129.515625 L 2.90625 -129.515625 L 2.90625 -99.8125 L 9.328125 -99.8125 L 9.328125 0 L 35.34375 0 L 35.34375 -99.8125 L 51.453125 -99.8125 L 51.453125 0 L 83.890625 0 L 83.890625 -99.8125 L 100 -99.8125 L 100 0 Z M 132.4375 0 "/></g></g></g><g fill="#ffffff" fill-opacity="1"><g transform="translate(330.123938, 255.77858)"><g><path d="M 37.484375 0 L 37.484375 -29.515625 L 5.046875 -29.515625 L 5.046875 0 Z M 37.484375 0 "/></g></g></g></svg>